ik_full
version=1
nRows=26
nColumns=40
inDegrees=no
endheader
time	pelvis_tilt	pelvis_list	pelvis_rotation	pelvis_tx	pelvis_ty	pelvis_tz	hip_flexion_r	hip_adduction_r	hip_rotation_r	knee_angle_r	ankle_angle_r	subtalar_angle_r	mtp_angle_r	hip_flexion_l	hip_adduction_l	hip_rotation_l	knee_angle_l	ankle_angle_l	subtalar_angle_l	mtp_angle_l	lumbar_extension	lumbar_bending	lumbar_rotation	arm_flex_r	arm_add_r	arm_rot_r	elbow_flex_r	pro_sup_r	wrist_flex_r	wrist_dev_r	arm_flex_l	arm_add_l	arm_rot_l	elbow_flex_l	pro_sup_l	wrist_flex_l	wrist_dev_l	knee_angle_r_beta	knee_angle_l_beta
0.98250000	-0.00804134	0.10716281	-0.07462932	1.10968069	0.91048075	-0.22958732	0.56097797	-0.14023008	-0.02437859	0.54975346	0.18380823	0.01861229	-0.00040485	-0.14651614	0.17243460	0.00074308	0.12336168	0.24556064	0.02034670	-0.00088755	-0.07015832	-0.07604414	-0.23966427	-0.22065587	-0.22786059	0.13955873	0.34288242	1.35458385	-0.00009351	0.00046255	-0.01981675	-0.26244365	-0.37171534	0.98111420	1.48157633	-0.00013359	0.00030875	0.54975346	0.12336168
0.99242424	-0.00576042	0.09537885	-0.07015789	1.12117542	0.90989929	-0.22844021	0.54580859	-0.12625878	-0.04424668	0.46869505	0.17838195	0.01861229	-0.00040485	-0.16533458	0.15766934	0.00253910	0.12212642	0.25276253	0.02034670	-0.00088755	-0.07517381	-0.06238346	-0.24853725	-0.21955987	-0.22918933	0.13517615	0.33051822	1.35456679	-0.00009351	0.00046255	-0.01261092	-0.26574098	-0.37390869	0.99557960	1.48157789	-0.00013359	0.00030875	0.46869505	0.12212642
1.00234848	-0.00163316	0.08250888	-0.06542062	1.13294535	0.90938171	-0.22716817	0.52586315	-0.10998203	-0.05979917	0.38789264	0.17105996	0.01861229	-0.00040485	-0.18603295	0.14129018	0.00375509	0.12164781	0.25976887	0.02034670	-0.00088755	-0.08184494	-0.04786665	-0.25635784	-0.21878112	-0.23005406	0.12882371	0.31957079	1.35408651	-0.00009351	0.00046255	-0.00550510	-0.26897446	-0.37436558	1.00897626	1.48157947	-0.00013359	0.00030875	0.38789264	0.12164781
1.01227273	0.00465589	0.06876873	-0.06020167	1.14502636	0.90896942	-0.22580763	0.50127547	-0.09206341	-0.06968074	0.30908745	0.16195656	0.01861229	-0.00040485	-0.20888057	0.12356419	0.00443019	0.12210587	0.26660146	0.02034670	-0.00088755	-0.09040984	-0.03269307	-0.26330532	-0.21842265	-0.23050429	0.12074910	0.31013491	1.35334401	-0.00009351	0.00046255	0.00137763	-0.27210554	-0.37307621	1.02146970	1.48158107	-0.00013359	0.00030875	0.30908745	0.12210587
1.02219697	0.01254926	0.05500788	-0.05438981	1.15742375	0.90862463	-0.22441145	0.47377622	-0.07400744	-0.07334883	0.23516262	0.15148305	0.01861229	-0.00040485	-0.23300394	0.10545266	0.00447187	0.12385629	0.27319936	0.02034670	-0.00088755	-0.10008813	-0.01767246	-0.26949138	-0.21861531	-0.23059262	0.11141921	0.30218554	1.35247123	-0.00009351	0.00046255	0.00783238	-0.27509854	-0.37007501	1.03308706	1.48158266	-0.00013359	0.00030875	0.23516262	0.12385629
1.03212121	0.02185456	0.04156538	-0.04790085	1.17012613	0.90834730	-0.22303619	0.44469353	-0.05687106	-0.07234044	0.16922690	0.14037567	0.01861229	-0.00040485	-0.25800889	0.08736128	0.00346044	0.12711340	0.27955365	0.02034670	-0.00088755	-0.11060110	-0.00299485	-0.27507764	-0.21925580	-0.23050488	0.10155568	0.29559054	1.35149524	-0.00009351	0.00046255	0.01375441	-0.27778683	-0.36554476	1.04378854	1.48158424	-0.00013359	0.00030875	0.16922690	0.12711340
1.04204545	0.03161289	0.02897560	-0.04105086	1.18306864	0.90807035	-0.22171057	0.41687938	-0.04161428	-0.07034779	0.11551014	0.13056455	0.01861229	-0.00040485	-0.28256572	0.07000085	0.00100942	0.13215461	0.28551063	0.02034670	-0.00088755	-0.12094825	0.01092793	-0.28018966	-0.21994732	-0.23047989	0.09251362	0.28989456	1.35037587	-0.00009351	0.00046255	0.01888377	-0.27995775	-0.36003857	1.05348297	1.48158582	-0.00013359	0.00030875	0.11551014	0.13215461
1.05196970	0.03876113	0.01905575	-0.03491211	1.19611929	0.90754546	-0.22040576	0.39662301	-0.02995927	-0.07130645	0.07963658	0.12507606	0.01861229	-0.00040485	-0.30279079	0.05567464	-0.00252452	0.13947000	0.29035676	0.02034670	-0.00088755	-0.12784522	0.02217687	-0.28456463	-0.22029381	-0.23058249	0.08582830	0.28437989	1.34915706	-0.00009351	0.00046255	0.02267520	-0.28152170	-0.35431722	1.06186644	1.48158739	-0.00013359	0.00030875	0.07963658	0.13947000
1.06189394	0.04277936	0.01151717	-0.03004857	1.20925115	0.90676430	-0.21908051	0.38510560	-0.02130593	-0.07758162	0.06290079	0.12431816	0.01861229	-0.00040485	-0.31818235	0.04426726	-0.00716452	0.14892084	0.29363021	0.02034670	-0.00088755	-0.13083360	0.03104529	-0.28792552	-0.22003838	-0.23093175	0.08165710	0.27889773	1.34796797	-0.00009351	0.00046255	0.02500050	-0.28225446	-0.34875877	1.06871085	1.48158896	-0.00013359	0.00030875	0.06290079	0.14892084
1.07181818	0.04739495	0.00300643	-0.02583624	1.22258932	0.90612473	-0.21773522	0.37572480	-0.01215103	-0.09018607	0.06090291	0.12519706	0.01861229	-0.00040485	-0.33367676	0.03199408	-0.01397346	0.15954889	0.29546639	0.02034670	-0.00088755	-0.13411964	0.04118835	-0.29026560	-0.21911742	-0.23181974	0.07863957	0.27412155	1.34681462	-0.00009351	0.00046255	0.02638201	-0.28171671	-0.34319986	1.07412142	1.48159053	-0.00013359	0.00030875	0.06090291	0.15954889
1.08174242	0.05417849	-0.00779537	-0.02193515	1.23618859	0.90578173	-0.21637949	0.36552892	-0.00120503	-0.10937173	0.07042401	0.12512511	0.01861229	-0.00040485	-0.35142002	0.01731768	-0.02318021	0.17082654	0.29541448	0.02034670	-0.00088755	-0.13941393	0.05403092	-0.29143632	-0.21774216	-0.23329646	0.07575266	0.27055247	1.34567686	-0.00009351	0.00046255	0.02706316	-0.27971646	-0.33749180	1.07813424	1.48159210	-0.00013359	0.00030875	0.07042401	0.17082654
1.09166667	0.06114019	-0.01941359	-0.01864146	1.25001467	0.90558184	-0.21498676	0.35699674	0.01001636	-0.13371675	0.08975032	0.12228494	0.01861229	-0.00040485	-0.36891706	0.00184294	-0.03387012	0.18313623	0.29261080	0.02034670	-0.00088755	-0.14437463	0.06787335	-0.29135644	-0.21622024	-0.23512541	0.07287850	0.26815738	1.34463747	-0.00009351	0.00046255	0.02661449	-0.27640764	-0.33180258	1.08061430	1.48159366	-0.00013359	0.00030875	0.08975032	0.18313623
1.10159091	0.06697911	-0.03097503	-0.01602669	1.26406545	0.90544012	-0.21351604	0.35062267	0.02076133	-0.16004795	0.11466944	0.11387423	0.01861229	-0.00040485	-0.38440146	-0.01359386	-0.04533344	0.19703412	0.28674067	0.02034670	-0.00088755	-0.14744104	0.08162668	-0.29034861	-0.21467182	-0.23709815	0.07004756	0.26684418	1.34377555	-0.00009351	0.00046255	0.02455642	-0.27198458	-0.32642093	1.08152759	1.48159522	-0.00013359	0.00030875	0.11466944	0.19703412
1.11151515	0.07189290	-0.04300725	-0.01390151	1.27835015	0.90540412	-0.21193041	0.34457869	0.03195659	-0.18572143	0.14001508	0.09730565	0.01861229	-0.00040485	-0.39782652	-0.02979968	-0.05783699	0.21306240	0.27785761	0.02034670	-0.00088755	-0.14883069	0.09576927	-0.28860807	-0.21312332	-0.23911114	0.06699821	0.26671426	1.34310363	-0.00009351	0.00046255	0.02088926	-0.26655266	-0.32136121	1.08073773	1.48159678	-0.00013359	0.00030875	0.14001508	0.21306240
1.12143939	0.07661118	-0.05673363	-0.01202261	1.29285265	0.90556604	-0.21020033	0.33686085	0.04543230	-0.20958507	0.16190807	0.07174888	0.01861229	-0.00040485	-0.40963937	-0.04839414	-0.07254643	0.23193164	0.26601131	0.02034670	-0.00088755	-0.14945559	0.11160531	-0.28588779	-0.21168795	-0.24110648	0.06302494	0.26809832	1.34261190	-0.00009351	0.00046255	0.01609295	-0.26015814	-0.31622508	1.07784266	1.48159833	-0.00013359	0.00030875	0.16190807	0.23193164
1.13136364	0.08159572	-0.07229620	-0.01040013	1.30752104	0.90598883	-0.20830110	0.32645219	0.06183733	-0.22993373	0.17855620	0.03989948	0.01861229	-0.00040485	-0.41992923	-0.06965863	-0.08951536	0.25426641	0.25094914	0.02034670	-0.00088755	-0.15004074	0.12922855	-0.28200653	-0.21027586	-0.24292610	0.05793207	0.27113016	1.34234614	-0.00009351	0.00046255	0.01056350	-0.25297235	-0.31092036	1.07264026	1.48159989	-0.00013359	0.00030875	0.17855620	0.25426641
1.14128788	0.08678121	-0.08840056	-0.00930860	1.32226229	0.90667804	-0.20622570	0.31389472	0.07994882	-0.24477776	0.19094595	0.00780789	0.01861229	-0.00040485	-0.42810101	-0.09213506	-0.10737033	0.28062139	0.23209060	0.02034670	-0.00088755	-0.15080787	0.14714200	-0.27708059	-0.20848878	-0.24435677	0.05263106	0.27553059	1.34237719	-0.00009351	0.00046255	0.00440537	-0.24528594	-0.30585766	1.06526745	1.48160144	-0.00013359	0.00030875	0.19094595	0.28062139
1.15121212	0.09244934	-0.10452471	-0.00874908	1.33697913	0.90765831	-0.20400822	0.29980644	0.09891946	-0.25420184	0.20168778	-0.01879361	0.01861229	-0.00040485	-0.43384477	-0.11534878	-0.12570770	0.31180749	0.20896856	0.02034670	-0.00088755	-0.15232740	0.16480506	-0.27106165	-0.20611019	-0.24536967	0.04775815	0.28121850	1.34268413	-0.00009351	0.00046255	-0.00205413	-0.23722519	-0.30104282	1.05568161	1.48160299	-0.00013359	0.00030875	0.20168778	0.31180749
1.16113636	0.09907205	-0.12086805	-0.00853608	1.35158844	0.90896525	-0.20169978	0.28444671	0.11856034	-0.25914758	0.21322599	-0.03639726	0.01861229	-0.00040485	-0.43708728	-0.13970307	-0.14461622	0.34868822	0.18128013	0.02034670	-0.00088755	-0.15531285	0.18252292	-0.26369861	-0.20317942	-0.24603416	0.04307778	0.28844173	1.34318404	-0.00009351	0.00046255	-0.00833060	-0.22878595	-0.29612460	1.04365247	1.48160454	-0.00013359	0.00030875	0.21322599	0.34868822
1.17106061	0.10658445	-0.13703408	-0.00859837	1.36601661	0.91058546	-0.19932928	0.26837221	0.13824048	-0.25973535	0.22699847	-0.04350206	0.01861229	-0.00040485	-0.43725629	-0.16484777	-0.16288210	0.39181890	0.14873059	0.02034670	-0.00088755	-0.15980971	0.19985969	-0.25505946	-0.19960277	-0.24632488	0.03856625	0.29720398	1.34382103	-0.00009351	0.00046255	-0.01430611	-0.22004715	-0.29118590	1.02918100	1.48160609	-0.00013359	0.00030875	0.22699847	0.39181890
1.18098485	0.11433875	-0.15250979	-0.00893952	1.38020670	0.91245591	-0.19690683	0.25237346	0.15739877	-0.25613042	0.24309753	-0.04096258	0.01861229	-0.00040485	-0.43318511	-0.19025347	-0.17873098	0.44159475	0.11112349	0.02034670	-0.00088755	-0.16514003	0.21621158	-0.24532072	-0.19535676	-0.24615980	0.03401161	0.30743282	1.34453272	-0.00009351	0.00046255	-0.02003449	-0.21113391	-0.28632037	1.01229679	1.48160764	-0.00013359	0.00030875	0.24309753	0.44159475
1.19090909	0.12088703	-0.16684449	-0.00983310	1.39410607	0.91445087	-0.19444579	0.23783596	0.17560490	-0.24889466	0.26063138	-0.03142753	0.01861229	-0.00040485	-0.42278126	-0.21531682	-0.19056611	0.49844162	0.06837927	0.02034670	-0.00088755	-0.16977603	0.23114503	-0.23423246	-0.19083752	-0.24547304	0.02785895	0.31952060	1.34523006	-0.00009351	0.00046255	-0.02534904	-0.20211560	-0.28098159	0.99271778	1.48160918	-0.00013359	0.00030875	0.26063138	0.49844162
1.20083333	0.12460129	-0.17939012	-0.01144017	1.40767125	0.91642673	-0.19198108	0.22613307	0.19217181	-0.23902765	0.27807658	-0.01801718	0.01861229	-0.00040485	-0.40379107	-0.23907282	-0.19649128	0.56230636	0.02052038	0.02034670	-0.00088755	-0.17193868	0.24407588	-0.22196568	-0.18634190	-0.24423121	0.01902490	0.33372924	1.34579328	-0.00009351	0.00046255	-0.03019800	-0.19306750	-0.27483107	0.97031921	1.48161073	-0.00013359	0.00030875	0.27807658	0.56230636
1.21075758	0.12501400	-0.19002165	-0.01307355	1.42090160	0.91832044	-0.18957292	0.21701783	0.20691205	-0.22847939	0.29322179	-0.00357691	0.01861229	-0.00040485	-0.37554477	-0.26124127	-0.19490236	0.63206560	-0.03236810	0.02034670	-0.00088755	-0.17087102	0.25494826	-0.20968565	-0.18179030	-0.24245817	0.00842882	0.34976597	1.34592060	-0.00009351	0.00046255	-0.03480506	-0.18416281	-0.26812736	0.94544468	1.48161228	-0.00013359	0.00030875	0.29322179	0.63206560
1.22068182	0.12281415	-0.19931546	-0.01364307	1.43382098	0.92015098	-0.18729536	0.20896606	0.22032130	-0.21962442	0.30398336	0.00999511	0.01861229	-0.00040485	-0.33906742	-0.28231578	-0.18564042	0.70566441	-0.08999337	0.02034670	-0.00088755	-0.16701134	0.26445368	-0.19845802	-0.17714365	-0.24030968	-0.00239838	0.36741677	1.34516570	-0.00009351	0.00046255	-0.03921484	-0.17560492	-0.26090236	0.91851759	1.48161382	-0.00013359	0.00030875	0.30398336	0.70566441
1.23060606	0.11906730	-0.20766065	-0.01244916	1.44644156	0.92196274	-0.18521072	0.20056023	0.23262274	-0.21415707	0.30949708	0.02211205	0.01861229	-0.00040485	-0.29621750	-0.30229028	-0.16959382	0.78045715	-0.15097815	0.02034670	-0.00088755	-0.16136596	0.27305097	-0.18877455	-0.17237086	-0.23804627	-0.01206420	0.38660396	1.34337054	-0.00009351	0.00046255	-0.04328858	-0.16756494	-0.25309252	0.89000703	1.48161537	-0.00013359	0.00030875	0.30949708	0.78045715
